<svg width="25" height="16" viewBox="0 0 25 16" fill="none" xmlns="http://www.w3.org/2000/svg">
<path d="M1 9C0.447715 9 4.82822e-08 8.55228 0 8C-4.82822e-08 7.44772 0.447715 7 1 7L1 9ZM24.7071 7.29289C25.0976 7.68342 25.0976 8.31658 24.7071 8.7071L18.3431 15.0711C17.9526 15.4616 17.3195 15.4616 16.9289 15.0711C16.5384 14.6805 16.5384 14.0474 16.9289 13.6569L22.5858 8L16.9289 2.34314C16.5384 1.95262 16.5384 1.31946 16.9289 0.928931C17.3195 0.538406 17.9526 0.538406 18.3431 0.928931L24.7071 7.29289ZM1 7L24 7L24 9L1 9L1 7Z" fill="#7B7B7B"/>
</svg>
